<?xml version="1.0" encoding="utf-8"?>
<!-- Generator: Adobe Illustrator 19.1.0, SVG Export Plug-In . SVG Version: 6.00 Build 0)  -->
<svg version="1.1" id="svg6365" xmlns:svg="http://www.w3.org/2000/svg"
	 xmlns="http://www.w3.org/2000/svg" xmlns:xlink="http://www.w3.org/1999/xlink" x="0px" y="0px" width="800px" height="600px"
	 viewBox="324 0.5 800 600" enable-background="new 324 0.5 800 600" xml:space="preserve">
<path id="path6289" fill="#231F20" d="M664.5,268.3c-4.8-2.7-12-3.9-21.9-4c-13.6,0-26.2,2.8-31,4.6c-1.1,0.3-2.2,1.3-2.3,2.9l0,0.4
	l1.3,6.8l0,0.1c0.4,1.4,1.6,2,2.6,2h0c0.3,0,0.6-0.1,0.8-0.1l2.3-0.5c5.9-1.5,14.9-3.7,24.9-3.7c6.1,0,10.1,0.5,12.9,1.7
	c4.4,1.7,4.5,4.5,4.5,9.3v7.1c-0.5,0-1.4,0-2.7,0c-4.9,0-14.5,0.2-24,1.7c-14.5,2.2-26.4,5.7-26.3,25.6c0,25.3,23.5,25.3,34.7,25.3
	h0c7.6,0,14.7-1.1,19.3-2.1c10.5-2.4,13.2-5.8,13.1-16.2v-42C672.7,280.7,672.7,272.7,664.5,268.3 M658.7,333.2
	c-5.6,1.8-11.7,2.7-18.2,2.7v0.6l0-0.6c-10.4-0.1-20.5-1.3-20.5-14.5c0.1-10.5,5.7-11.8,12.8-13.4l0.5-0.1
	c6.3-1.4,22.2-1.6,25.4-1.6L658.7,333.2L658.7,333.2z M789.9,287.1v42c0.1,10.5-2.5,13.8-13.1,16.2c-4.6,1-11.7,2.1-19.3,2.1h0
	c-11.3,0-34.7-0.1-34.7-25.3c-0.1-19.9,11.9-23.4,26.3-25.6c9.5-1.5,19.1-1.7,24-1.7c1.3,0,2.2,0,2.7,0v-7.1c0-4.7-0.1-7.6-4.5-9.3
	c-2.7-1.2-6.8-1.7-12.9-1.7c-10,0-19,2.2-24.9,3.7l-2.3,0.5c-0.2,0.1-0.5,0.1-0.8,0.1h0c-1,0-2.2-0.6-2.6-2l0-0.1l-1.3-6.8l0-0.4
	c0-1.6,1.2-2.5,2.3-2.9c4.8-1.8,17.4-4.6,31-4.6c9.9,0,17.1,1.3,21.9,4C789.9,272.7,789.9,280.7,789.9,287.1 M775.9,306.4
	c-3.3,0-19.1,0.3-25.5,1.6l-0.5,0.1c-7.1,1.6-12.7,2.8-12.8,13.4c0,13.2,10.1,14.4,20.5,14.5l0,0.6V336c6.5,0,12.6-0.9,18.2-2.7
	L775.9,306.4L775.9,306.4z M1002.2,264.4c-32.7,0-35.4,21.5-35.5,41.6c0,20,2.8,41.4,35.5,41.5h0c32.6,0,35.4-21.4,35.5-41.5
	C1037.7,284.9,1034.9,264.4,1002.2,264.4 M1002.2,335.7c-19.8-0.1-20.8-10.3-20.9-29.7c0.1-19.6,1.1-29.8,20.9-29.9
	c19.8,0.1,20.8,10.3,20.9,29.9C1023,325.4,1022,335.6,1002.2,335.7 M943.6,344.5l-0.9,0.2c-4.6,1.2-10.8,2.7-21.8,2.7h0h0
	c-30.2,0-36.2-15.3-36.2-41.6c0-30.2,9.6-41.4,35.3-41.5c9.1,0,15.3,1.2,19.8,2.3l0-24.3c0-1.1,0.4-2.5,3-2.9l8-2h0.4
	c1.8,0,2.5,1.7,2.5,3.1v91.4C953.9,337.5,953.2,342.5,943.6,344.5 M939.9,278.3c-2.7-0.7-10.2-2.4-18.6-2.4
	c-15.5,0.1-22,4.3-22.1,30c0.2,28.2,8.6,29.7,22.3,29.9l0,0.6v-0.6c8.5,0,15.8-1.8,18.4-2.5L939.9,278.3L939.9,278.3z M867.7,345.5
	h-7.2c-1.9,0-3.4-1.5-3.4-3.4v-54.2c-0.1-9.2-2.9-11.7-12.7-11.9c-11.2,0-22.5,2.8-26.2,3.8v62.2c0,2-1.4,3.4-3.2,3.4h-7.3
	c-1.9,0-3.4-1.5-3.4-3.4v-60.8c-0.1-5.6,0.4-9.5,8.4-12.1c7.7-2.6,22.3-4.9,32-4.9c18.5,0,26.3,6.7,26.4,22.3v55.5
	C871.1,344.1,869.6,345.5,867.7,345.5 M705.1,347L705.1,347c4.1-0.1,7.2-0.9,8.4-2.2c0.4-0.5,0.6-1,0.6-1.6c0-0.4,0-0.4-1.2-5.7
	l0-0.1c-0.2-1.4-1.2-2-2-2c-0.1,0-0.2,0-0.1,0c0,0-1-0.1-2.1-0.1h0c-2.9-0.1-5.4-0.5-5.4-4.8v-90c0-1.5-0.9-3-2.6-3.1l-0.5,0l-8,2.1
	c-1.4,0.1-2.8,1.1-2.7,2.9v88.4C689.3,341.2,694.9,347,705.1,347L705.1,347L705.1,347z M591.6,345.5H534c-1.9,0-3.4-1.5-3.4-3.4v-7
	c0-1.7,0.5-2.5,1.6-3.8L578,278h-44.9c-1.9,0-3.4-1.5-3.4-3.4v-5c0-1.9,1.5-3.4,3.4-3.4h58.2c1.9,0,3.4,1.5,3.4,3.4v7.2
	c0,1.3-0.4,2.4-1.5,3.6l-46,53.4h44.3c1.9,0,3.4,1.5,3.4,3.4v5C594.9,344.1,593.5,345.5,591.6,345.5"/>
<linearGradient id="path6315_1_" gradientUnits="userSpaceOnUse" x1="423.5031" y1="600.2847" x2="424.1321" y2="600.2847" gradientTransform="matrix(-104.5993 -181.1712 181.1712 -104.5993 -63980.5781 139881.9062)">
	<stop  offset="0" style="stop-color:#F47026"/>
	<stop  offset="0.3753" style="stop-color:#F47026"/>
	<stop  offset="0.9492" style="stop-color:#FBC195"/>
	<stop  offset="0.9492" style="stop-color:#FBC195"/>
	<stop  offset="1" style="stop-color:#FBC195"/>
</linearGradient>
<path id="path6315" fill="url(#path6315_1_)" d="M415.2,257.4c-10,0-15.1,27.2-14.5,52.7c0,0,0,0,0,0c0.5,22.4,5.5,43.9,15.3,43.9
	c37.7,0,80.6-35.5,80.6-48.3c0-3.2-3.2-9.3-7.6-14.2c0,0,0,0,0,0c-0.3-0.3-0.6-0.7-0.9-1C474.5,275.5,446.7,257.4,415.2,257.4z"/>
<linearGradient id="path6315-1_1_" gradientUnits="userSpaceOnUse" x1="423.5031" y1="600.3128" x2="424.1321" y2="600.3128" gradientTransform="matrix(-104.5993 -181.1712 181.1712 -104.5993 -63980.5781 139881.9062)">
	<stop  offset="0" style="stop-color:#F47026"/>
	<stop  offset="0.3753" style="stop-color:#F47026"/>
	<stop  offset="0.9492" style="stop-color:#FBC195"/>
	<stop  offset="0.9492" style="stop-color:#FBC195"/>
	<stop  offset="1" style="stop-color:#FBC195"/>
</linearGradient>
<path id="path6315-1" fill="url(#path6315-1_1_)" d="M400.6,310.1c28.3,6.6,58.5-0.8,87.8-18.3l0,0c0.1-0.1,0.3-0.2,0.4-0.3l0,0
	c-0.3-0.3-0.6-0.7-0.9-1l0,0c-13.4-15-41.3-33.1-72.8-33.1l0,0C405.2,257.4,400.1,284.6,400.6,310.1 M488.9,291.5
	C488.9,291.5,488.9,291.5,488.9,291.5L488.9,291.5L488.9,291.5z"/>
<linearGradient id="path6339_1_" gradientUnits="userSpaceOnUse" x1="423.8418" y1="602.5386" x2="424.4708" y2="602.5386" gradientTransform="matrix(152.4999 0 0 152.4999 -64235.2656 -91564.3672)">
	<stop  offset="0" style="stop-color:#F57D34"/>
	<stop  offset="0.5338" style="stop-color:#F47026"/>
	<stop  offset="0.5338" style="stop-color:#F47026"/>
	<stop  offset="1" style="stop-color:#F47026"/>
</linearGradient>
<path id="path6339" fill="url(#path6339_1_)" d="M400.6,310.1c0.5,22.4,5.5,43.9,15.3,43.9l0,0c37.7,0,80.6-35.5,80.6-48.3l0,0
	c0-3.2-3.3-9.3-7.6-14.2l0,0C459.5,309.2,429.1,316.8,400.6,310.1"/>
</svg>
