<?xml version="1.0" encoding="utf-8"?>
<!-- Generator: Adobe Illustrator 19.1.0, SVG Export Plug-In . SVG Version: 6.00 Build 0)  -->
<svg version="1.1" id="Arrow_1_" xmlns="http://www.w3.org/2000/svg" xmlns:xlink="http://www.w3.org/1999/xlink" x="0px" y="0px"
	 width="100px" height="100px" viewBox="151 251 100 100" enable-background="new 151 251 100 100" xml:space="preserve">
<path fill="#BFC3C7" d="M240,347.1c-1.9,0-3.6-0.7-5-2l-22.3-22.3l-1.3,0.8c-5.8,3.6-12.6,5.5-19.4,5.5c-20.4,0-37-16.6-37-37
	c0-20.4,16.6-37,37-37c20.4,0,37,16.6,37,37c0,6.8-1.9,13.5-5.5,19.4l-0.8,1.3l22.3,22.3c1.3,1.3,2,3.1,2,4.9c0,1.9-0.7,3.6-2,4.9
	C243.6,346.3,241.9,347.1,240,347.1z M192,266c-14.3,0-26,11.7-26,26c0,14.3,11.7,26,26,26c14.3,0,26-11.7,26-26
	C218,277.7,206.3,266,192,266z"/>
</svg>
