<?xml version="1.0" encoding="utf-8"?>
<!-- Generator: Adobe Illustrator 19.1.0, SVG Export Plug-In . SVG Version: 6.00 Build 0)  -->
<svg version="1.1" id="Warstwa_1" xmlns="http://www.w3.org/2000/svg" xmlns:xlink="http://www.w3.org/1999/xlink" x="0px" y="0px"
	 width="600px" height="600px" viewBox="0 0 600 600" enable-background="new 0 0 600 600" xml:space="preserve">
<path fill="#F7F7F8" d="M159,494.4c-0.6,0-1.1-0.1-1.3-0.1l-0.3-0.1h-0.1c-2.7-0.8-4.4-3.2-4.4-6V158.7c0-1.8,0.8-3.6,2.1-4.9
	l46.7-46.7c0.6-0.6,2.1-1.9,4.6-1.9c0.2,0,0.4,0,0.7,0h0.2l235.5,37.5c2.9,0.4,5.2,3,5.2,6.1v104c0,2.3-1.2,4.3-3.1,5.4l-0.1,0.1
	l-187.2,93.6l-93.2,139.9C163,493.4,161,494.4,159,494.4z M165.2,467.6L246,346.4l-80.8-161.6V467.6z M257.7,337.7l171-85.5
	L215,123.9L257.7,337.7z M238,302.5L202.3,124l-35.7,35.7L238,302.5z M435.4,241.7V154l-198.5-31.5L435.4,241.7z"/>
</svg>
