<?xml version="1.0" encoding="utf-8"?>
<!-- Generator: Adobe Illustrator 19.1.0, SVG Export Plug-In . SVG Version: 6.00 Build 0)  -->
<svg version="1.1" id="Warstwa_1" xmlns="http://www.w3.org/2000/svg" xmlns:xlink="http://www.w3.org/1999/xlink" x="0px" y="0px"
	 width="800px" height="600px" viewBox="141.9 1.4 800 600" enable-background="new 141.9 1.4 800 600" xml:space="preserve">
<g id="surface1">
	<path d="M308.6,256.3c78.3-98.8,212.9-93,254.5-41.5c-24.9-16.5-61.4-29-90.1-24.9c45.1,5.6,59.5,26.5,66.4,36.3
		c-15.7-11.1-55.5-35.4-96-28c28.4,3.5,61.1,16.9,74.5,40.8c-22.9-16.9-61.2-38.6-97.6-30.2c31.4,4.3,62.9,17.7,77,43.7
		C472,234.6,380.5,197.8,308.6,256.3"/>
	<path d="M766,231c-78.2,99-216,92.3-257.6,40.7c24.9,16.5,71.7,35.1,99.9,29c-44.5-7.6-69.5-30.5-76.3-40.4
		c15.5,11.2,56,36.5,96.5,29.1c-28.4-3.5-61.6-18-75.2-41.8c22.9,16.9,62.1,39.5,98.5,31.4c-31.4-4.5-63.6-18.9-77.9-44.8
		C599.5,251.9,694.1,289.7,766,231"/>
	<path fill="#D43427" d="M687.8,178.1l1.3,9.2c-31,0.2-60.7,5.1-89.1,14.5c-23.7,8-50.3,20.7-79.8,38.3
		c-36.9,22.5-62.5,36.9-76.5,43.5c-30.1,14.2-60.6,22.4-91.6,24.2c35.7,1.4,69.5-3.2,102-13.9c23.9-8,50.8-20.9,80.6-38.8
		c32.7-19.3,57.9-32.9,75.8-40.8c25.7-11.1,51.8-19.4,78.8-24.9l1.3,9.1l29.2-14.7L687.8,178.1z"/>
	<path d="M356.6,332.5h8l9.1,45.2l9-45.2h7.6l5.7,65.2h-8.2l-2.6-45.8l-8.8,45.8h-6l-8.6-45.8l-2.7,45.8h-8L356.6,332.5z"/>
	<path d="M417.3,332.5h9v65.2h-9V332.5z"/>
	<path d="M456.8,360.9c3.7,0,6.6-0.5,8.9-1.5c2.3-1,3.4-3.8,3.5-8.2v-1.2c0-4.6-1-7.4-3-8.3c-2-0.9-5.1-1.4-9.5-1.4V360.9z
		 M456.8,397.7h-8.9v-65.3h10.7c6,0,10.7,1.1,14.2,3.3c3.5,2.2,5.3,6.7,5.3,13.3c0,4.5-0.9,8.2-2.6,11.1c-1.8,2.9-5,4.6-9.6,5.4
		l15.5,32.1h-9.6L457,366h-0.2V397.7z"/>
	<path d="M516.3,349.3l-6,28.2h11.8L516.3,349.3z M512.1,332.4h8.3l15.1,65.3h-8.7l-3.3-13h-14.8l-3.1,13h-8.9L512.1,332.4z"/>
	<path d="M557.8,332.5h8.3l17.3,45.2v-45.2h8.2v65.2h-8.2L566.3,352v45.7h-8.5V332.5z"/>
	<path d="M624,340.5H612v-8.1h32.9v8.1h-12.1v57.1H624V340.5z"/>
	<path d="M662.7,332.5h9v65.2h-9V332.5z"/>
	<path d="M692.5,386.7c0.3,0.1,0.5,0.3,0.8,0.4c0.9,0.5,1.9,1,3,1.5c1.1,0.5,2.2,0.9,3.3,1.2c0.6,0.1,1.2,0.2,1.8,0.3
		c0.6,0.1,1.2,0.1,1.8,0.1h0.9c1.3-0.1,2.6-0.6,3.8-1.3c1.2-0.8,2.1-1.9,2.7-3.4c0.2-0.3,0.3-0.7,0.4-1c0.1-0.3,0.2-0.7,0.3-1.1
		c0-0.3,0-0.7,0-1c0-0.3,0.1-0.7,0.1-1c0-2.3-0.8-4.5-2.3-6.5c-1.6-1.9-3.3-3.8-5.3-5.4c-0.6-0.5-1.3-1-1.9-1.5
		c-0.6-0.5-1.2-1-1.8-1.5c-2.2-1.9-4.2-3.9-6-6.1c-1.8-2.3-3-4.9-3.6-7.9c0-0.2,0-0.5-0.1-0.8c-0.1-0.2-0.1-0.5-0.1-0.8
		c-0.1,0-0.1,0-0.1-0.1v-0.2c0-0.3-0.1-0.6-0.2-0.9c0-0.3,0-0.6,0-0.9c0-2.4,0.5-4.8,1.5-7.1c1-2.3,2.5-4.3,4.3-5.9
		c1.3-1.3,2.8-2.2,4.4-2.8c1.6-0.6,3.2-1,4.9-1.1h1.2c0.8,0,1.7,0,2.6,0.1c0.9,0.1,1.8,0.3,2.7,0.4c1.1,0.3,2.1,0.6,3.1,0.9
		c1,0.3,2.1,0.8,3,1.2v8.7c-0.1-0.1-0.3-0.1-0.4-0.2c-0.2-0.1-0.3-0.2-0.4-0.3c-0.9-0.4-1.8-0.9-2.9-1.3c-1-0.4-2.1-0.8-3.1-1
		c-0.6-0.1-1.2-0.3-1.8-0.4c-0.6-0.1-1.2-0.2-1.8-0.2h-0.6c-1.3,0.1-2.6,0.4-3.9,1.1c-1.2,0.7-2.2,1.7-3,3.3
		c-0.2,0.4-0.4,0.8-0.5,1.4c-0.2,0.5-0.3,1-0.4,1.5c0,0.2,0,0.5,0,0.8c0,0.3-0.1,0.5-0.1,0.8c0,0.3,0,0.5,0.1,0.8c0,0.3,0,0.5,0,0.7
		c0.1,0.5,0.2,1,0.4,1.6c0.2,0.5,0.3,0.9,0.5,1.4c1.1,2.1,2.4,3.8,4.1,5.3c1.7,1.5,3.4,3,5.2,4.4c2,1.6,3.9,3.3,5.7,5
		c1.8,1.7,3.2,3.8,4.2,6.3c0.3,0.6,0.5,1.3,0.6,2c0.1,0.8,0.2,1.5,0.3,2.3c0,0.4,0,0.8,0.1,1.1c0,0.4,0.1,0.7,0.1,1.1
		c0,0.4,0,0.8-0.1,1.2c0,0.4-0.1,0.9-0.2,1.4c-0.1,1.1-0.3,2.2-0.6,3.4c-0.3,1.1-0.7,2.2-1.1,3.1c-1.5,3-3.5,5.1-6.2,6.3
		c-2.6,1.2-5.4,1.8-8.4,1.8c-0.6,0-1.2,0-1.8-0.1c-0.6-0.1-1.3-0.1-1.9-0.2c-1.4-0.1-2.8-0.4-4.2-0.9c-1.4-0.5-2.7-1-3.9-1.6v-9.1
		C692,386.4,692.2,386.5,692.5,386.7"/>
</g>
</svg>
